<svg width="300" height="196" xmlns="http://www.w3.org/2000/svg"><rect width="300" height="196" rx="10" fill="#1a1b27" stroke="#414868" stroke-width="1"/><text x="20" y="25" fill="#58A6FF" font-family="Segoe UI,Helvetica,sans-serif" font-size="13" font-weight="600">Most Used Languages</text><text x="20" y="51" fill="#a9b1d6" font-family="Segoe UI,Helvetica,sans-serif" font-size="11">CSS</text><text x="280" y="51" fill="#a9b1d6" font-family="Segoe UI,Helvetica,sans-serif" font-size="11" text-anchor="end">33.6%</text><rect x="20" y="54" width="260" height="7" rx="3" fill="#252d3d"/><rect x="20" y="54" width="87.3" height="7" rx="3" fill="#563d7c"/><text x="20" y="75" fill="#a9b1d6" font-family="Segoe UI,Helvetica,sans-serif" font-size="11">JavaScript</text><text x="280" y="75" fill="#a9b1d6" font-family="Segoe UI,Helvetica,sans-serif" font-size="11" text-anchor="end">18.5%</text><rect x="20" y="78" width="260" height="7" rx="3" fill="#252d3d"/><rect x="20" y="78" width="48.0" height="7" rx="3" fill="#f1e05a"/><text x="20" y="99" fill="#a9b1d6" font-family="Segoe UI,Helvetica,sans-serif" font-size="11">Python</text><text x="280" y="99" fill="#a9b1d6" font-family="Segoe UI,Helvetica,sans-serif" font-size="11" text-anchor="end">14.8%</text><rect x="20" y="102" width="260" height="7" rx="3" fill="#252d3d"/><rect x="20" y="102" width="38.6" height="7" rx="3" fill="#3572A5"/><text x="20" y="123" fill="#a9b1d6" font-family="Segoe UI,Helvetica,sans-serif" font-size="11">PHP</text><text x="280" y="123" fill="#a9b1d6" font-family="Segoe UI,Helvetica,sans-serif" font-size="11" text-anchor="end">14.3%</text><rect x="20" y="126" width="260" height="7" rx="3" fill="#252d3d"/><rect x="20" y="126" width="37.2" height="7" rx="3" fill="#4F5D95"/><text x="20" y="147" fill="#a9b1d6" font-family="Segoe UI,Helvetica,sans-serif" font-size="11">HTML</text><text x="280" y="147" fill="#a9b1d6" font-family="Segoe UI,Helvetica,sans-serif" font-size="11" text-anchor="end">9.6%</text><rect x="20" y="150" width="260" height="7" rx="3" fill="#252d3d"/><rect x="20" y="150" width="25.0" height="7" rx="3" fill="#e34c26"/><text x="20" y="171" fill="#a9b1d6" font-family="Segoe UI,Helvetica,sans-serif" font-size="11">Vue</text><text x="280" y="171" fill="#a9b1d6" font-family="Segoe UI,Helvetica,sans-serif" font-size="11" text-anchor="end">9.2%</text><rect x="20" y="174" width="260" height="7" rx="3" fill="#252d3d"/><rect x="20" y="174" width="23.8" height="7" rx="3" fill="#41b883"/></svg>