<svg width="300" height="172" xmlns="http://www.w3.org/2000/svg"><rect width="300" height="172" rx="10" fill="#1a1b27" stroke="#414868" stroke-width="1"/><text x="20" y="25" fill="#58A6FF" font-family="Segoe UI,Helvetica,sans-serif" font-size="13" font-weight="600">Most Used Languages</text><text x="20" y="51" fill="#a9b1d6" font-family="Segoe UI,Helvetica,sans-serif" font-size="11">TypeScript</text><text x="280" y="51" fill="#a9b1d6" font-family="Segoe UI,Helvetica,sans-serif" font-size="11" text-anchor="end">34.0%</text><rect x="20" y="54" width="260" height="7" rx="3" fill="#252d3d"/><rect x="20" y="54" width="88.4" height="7" rx="3" fill="#2b7489"/><text x="20" y="75" fill="#a9b1d6" font-family="Segoe UI,Helvetica,sans-serif" font-size="11">Python</text><text x="280" y="75" fill="#a9b1d6" font-family="Segoe UI,Helvetica,sans-serif" font-size="11" text-anchor="end">24.0%</text><rect x="20" y="78" width="260" height="7" rx="3" fill="#252d3d"/><rect x="20" y="78" width="62.4" height="7" rx="3" fill="#3572A5"/><text x="20" y="99" fill="#a9b1d6" font-family="Segoe UI,Helvetica,sans-serif" font-size="11">CSS</text><text x="280" y="99" fill="#a9b1d6" font-family="Segoe UI,Helvetica,sans-serif" font-size="11" text-anchor="end">16.0%</text><rect x="20" y="102" width="260" height="7" rx="3" fill="#252d3d"/><rect x="20" y="102" width="41.6" height="7" rx="3" fill="#563d7c"/><text x="20" y="123" fill="#a9b1d6" font-family="Segoe UI,Helvetica,sans-serif" font-size="11">Vue</text><text x="280" y="123" fill="#a9b1d6" font-family="Segoe UI,Helvetica,sans-serif" font-size="11" text-anchor="end">14.0%</text><rect x="20" y="126" width="260" height="7" rx="3" fill="#252d3d"/><rect x="20" y="126" width="36.4" height="7" rx="3" fill="#41b883"/><text x="20" y="147" fill="#a9b1d6" font-family="Segoe UI,Helvetica,sans-serif" font-size="11">JavaScript</text><text x="280" y="147" fill="#a9b1d6" font-family="Segoe UI,Helvetica,sans-serif" font-size="11" text-anchor="end">12.0%</text><rect x="20" y="150" width="260" height="7" rx="3" fill="#252d3d"/><rect x="20" y="150" width="31.2" height="7" rx="3" fill="#f1e05a"/></svg>